<svg xmlns="http://www.w3.org/2000/svg" width="1em" height="1em" viewBox="0 0 24 24"><path fill="#4169e1" d="M12 5.61L9.24 8.35l3.31 3.31l-1.06 1.06l-3.31-3.31l-1.77 1.77l3.31 3.31l-1.06 1.06l-3.31-3.31l-2 2A2 2 0 0 0 3 16.66l1 1.89l-2.25 2.29l1.41 1.41L5.45 20l1.89 1a2 2 0 0 0 1 .26a2 2 0 0 0 1.42-.59L18.39 12zm7.8 3.59l-1.79-1.8l1.42-1.41l1.41 1.41l1.41-1.41l-4.24-4.24l-1.41 1.41l1.41 1.42l-1.41 1.41l-1.8-1.79l-1.74-1.75l-1.41 1.42l1.03 1.03v.01l6.41 6.41h.01l1.03 1.03l1.42-1.41l-1.74-1.74z"/></svg>