<svg xmlns="http://www.w3.org/2000/svg" width="1em" height="1em" viewBox="0 0 24 24"><g fill="none" stroke="#333" stroke-linecap="round" stroke-linejoin="round" stroke-width="1.5" color="#333"><path d="M2.5 12c0-4.478 0-6.718 1.391-8.109S7.521 2.5 12 2.5c4.478 0 6.718 0 8.109 1.391S21.5 7.521 21.5 12c0 4.478 0 6.718-1.391 8.109S16.479 21.5 12 21.5c-4.478 0-6.718 0-8.109-1.391S2.5 16.479 2.5 12"/><path d="M11 7.5h6m-9 0a.5.5 0 1 1-1 0a.5.5 0 0 1 1 0m3 4.5h6m-9 0a.5.5 0 1 1-1 0a.5.5 0 0 1 1 0m3 4.5h6m-9 0a.5.5 0 1 1-1 0a.5.5 0 0 1 1 0"/></g></svg>